<mxfile host="app.diagrams.net" modified="2022-12-04T17:27:41.611Z" agent="5.0 (Windows NT 10.0; Win64; x64) AppleWebKit/537.36 (KHTML, like Gecko) Chrome/108.0.0.0 Safari/537.36" version="20.6.0" etag="UcMzhk_4ge_0x_F1O--C" type="github" pages="6">
  <diagram id="pmAIfAkxdkreaLN6XeIy" name="Page-1">
    <mxGraphModel dx="694" dy="360" grid="1" gridSize="10" guides="1" tooltips="1" connect="1" arrows="1" fold="1" page="1" pageScale="1" pageWidth="850" pageHeight="1100" math="0" shadow="0">
      <root>
        <mxCell id="0" />
        <mxCell id="1" parent="0" />
        <mxCell id="4VQwYeKklxp4f4X8uhiD-1" value="System" style="swimlane;whiteSpace=wrap;html=1;startSize=23;" vertex="1" parent="1">
          <mxGeometry x="400" y="6" width="200" height="644" as="geometry" />
        </mxCell>
        <mxCell id="4VQwYeKklxp4f4X8uhiD-2" value="Fetch all data record related to top-ups and orders base on filter data&amp;nbsp;" style="whiteSpace=wrap;html=1;rounded=1;" vertex="1" parent="4VQwYeKklxp4f4X8uhiD-1">
          <mxGeometry x="25" y="420" width="150" height="68" as="geometry" />
        </mxCell>
        <mxCell id="4VQwYeKklxp4f4X8uhiD-3" value="" style="endArrow=none;html=1;rounded=0;" edge="1" parent="1">
          <mxGeometry width="50" height="50" relative="1" as="geometry">
            <mxPoint x="400" y="396" as="sourcePoint" />
            <mxPoint x="400" y="66" as="targetPoint" />
          </mxGeometry>
        </mxCell>
        <mxCell id="4VQwYeKklxp4f4X8uhiD-4" style="edgeStyle=orthogonalEdgeStyle;rounded=0;orthogonalLoop=1;jettySize=auto;html=1;" edge="1" parent="1" source="4VQwYeKklxp4f4X8uhiD-5">
          <mxGeometry relative="1" as="geometry">
            <mxPoint x="295" y="139.9999999999999" as="targetPoint" />
          </mxGeometry>
        </mxCell>
        <mxCell id="4VQwYeKklxp4f4X8uhiD-5" value="" style="ellipse;fillColor=strokeColor;" vertex="1" parent="1">
          <mxGeometry x="280" y="66" width="30" height="30" as="geometry" />
        </mxCell>
        <mxCell id="4VQwYeKklxp4f4X8uhiD-6" style="edgeStyle=orthogonalEdgeStyle;rounded=0;orthogonalLoop=1;jettySize=auto;html=1;entryX=0.5;entryY=1;entryDx=0;entryDy=0;exitX=0.044;exitY=0.506;exitDx=0;exitDy=0;exitPerimeter=0;" edge="1" parent="1" source="4VQwYeKklxp4f4X8uhiD-9" target="4VQwYeKklxp4f4X8uhiD-10">
          <mxGeometry relative="1" as="geometry">
            <Array as="points">
              <mxPoint x="215" y="182" />
            </Array>
          </mxGeometry>
        </mxCell>
        <mxCell id="4VQwYeKklxp4f4X8uhiD-7" value="no" style="edgeLabel;html=1;align=center;verticalAlign=middle;resizable=0;points=[];" vertex="1" connectable="0" parent="4VQwYeKklxp4f4X8uhiD-6">
          <mxGeometry x="-0.5833" y="-1" relative="1" as="geometry">
            <mxPoint x="5" as="offset" />
          </mxGeometry>
        </mxCell>
        <mxCell id="4VQwYeKklxp4f4X8uhiD-8" style="edgeStyle=orthogonalEdgeStyle;rounded=0;orthogonalLoop=1;jettySize=auto;html=1;entryX=0.481;entryY=0.051;entryDx=0;entryDy=0;entryPerimeter=0;" edge="1" parent="1" target="4VQwYeKklxp4f4X8uhiD-20">
          <mxGeometry relative="1" as="geometry">
            <mxPoint x="294.88" y="256" as="targetPoint" />
            <mxPoint x="294.8800000000001" y="219.9999999999999" as="sourcePoint" />
          </mxGeometry>
        </mxCell>
        <mxCell id="4VQwYeKklxp4f4X8uhiD-9" value="Authenticate ?" style="rhombus;rounded=1;" vertex="1" parent="1">
          <mxGeometry x="246.79" y="136" width="96.43" height="90" as="geometry" />
        </mxCell>
        <mxCell id="4VQwYeKklxp4f4X8uhiD-10" value="" style="shape=sumEllipse;perimeter=ellipsePerimeter;whiteSpace=wrap;html=1;backgroundOutline=1;" vertex="1" parent="1">
          <mxGeometry x="200" y="76" width="30" height="30" as="geometry" />
        </mxCell>
        <mxCell id="4VQwYeKklxp4f4X8uhiD-11" style="edgeStyle=orthogonalEdgeStyle;rounded=0;orthogonalLoop=1;jettySize=auto;html=1;entryX=1;entryY=0.5;entryDx=0;entryDy=0;exitX=0.96;exitY=0.506;exitDx=0;exitDy=0;exitPerimeter=0;" edge="1" parent="1" source="4VQwYeKklxp4f4X8uhiD-20" target="4VQwYeKklxp4f4X8uhiD-5">
          <mxGeometry relative="1" as="geometry">
            <Array as="points">
              <mxPoint x="360" y="297" />
              <mxPoint x="360" y="81" />
            </Array>
            <mxPoint x="335" y="296" as="sourcePoint" />
          </mxGeometry>
        </mxCell>
        <mxCell id="4VQwYeKklxp4f4X8uhiD-12" value="no" style="edgeLabel;html=1;align=center;verticalAlign=middle;resizable=0;points=[];" vertex="1" connectable="0" parent="4VQwYeKklxp4f4X8uhiD-11">
          <mxGeometry x="-0.9586" y="2" relative="1" as="geometry">
            <mxPoint x="6" as="offset" />
          </mxGeometry>
        </mxCell>
        <mxCell id="4VQwYeKklxp4f4X8uhiD-13" value="You are here" style="text;html=1;strokeColor=none;fillColor=none;align=center;verticalAlign=middle;whiteSpace=wrap;rounded=0;" vertex="1" parent="1">
          <mxGeometry x="238.39999999999998" y="36" width="113.21" height="30" as="geometry" />
        </mxCell>
        <mxCell id="4VQwYeKklxp4f4X8uhiD-25" style="edgeStyle=orthogonalEdgeStyle;rounded=0;orthogonalLoop=1;jettySize=auto;html=1;entryX=0.5;entryY=0;entryDx=0;entryDy=0;" edge="1" parent="1" source="4VQwYeKklxp4f4X8uhiD-15" target="4VQwYeKklxp4f4X8uhiD-24">
          <mxGeometry relative="1" as="geometry" />
        </mxCell>
        <mxCell id="4VQwYeKklxp4f4X8uhiD-15" value="View summary report" style="rounded=1;whiteSpace=wrap;html=1;" vertex="1" parent="1">
          <mxGeometry x="240.02" y="368" width="109.98" height="40" as="geometry" />
        </mxCell>
        <mxCell id="4VQwYeKklxp4f4X8uhiD-16" value="Cient" style="swimlane;whiteSpace=wrap;html=1;startSize=23;" vertex="1" parent="1">
          <mxGeometry x="190" y="6" width="210" height="644" as="geometry" />
        </mxCell>
        <mxCell id="4VQwYeKklxp4f4X8uhiD-17" value="Display summary report" style="whiteSpace=wrap;html=1;rounded=1;" vertex="1" parent="4VQwYeKklxp4f4X8uhiD-16">
          <mxGeometry x="50" y="524" width="120" height="40" as="geometry" />
        </mxCell>
        <mxCell id="4VQwYeKklxp4f4X8uhiD-18" style="edgeStyle=orthogonalEdgeStyle;rounded=0;orthogonalLoop=1;jettySize=auto;html=1;entryX=0.5;entryY=0;entryDx=0;entryDy=0;exitX=0.5;exitY=1;exitDx=0;exitDy=0;" edge="1" parent="4VQwYeKklxp4f4X8uhiD-16" source="4VQwYeKklxp4f4X8uhiD-17" target="4VQwYeKklxp4f4X8uhiD-19">
          <mxGeometry relative="1" as="geometry">
            <mxPoint x="132" y="664" as="sourcePoint" />
          </mxGeometry>
        </mxCell>
        <mxCell id="4VQwYeKklxp4f4X8uhiD-19" value="" style="ellipse;html=1;shape=endState;fillColor=strokeColor;" vertex="1" parent="4VQwYeKklxp4f4X8uhiD-16">
          <mxGeometry x="95" y="604" width="30" height="30" as="geometry" />
        </mxCell>
        <mxCell id="4VQwYeKklxp4f4X8uhiD-24" value="Filter data by date period" style="rounded=1;whiteSpace=wrap;html=1;" vertex="1" parent="4VQwYeKklxp4f4X8uhiD-16">
          <mxGeometry x="50.01000000000002" y="434" width="109.98" height="40" as="geometry" />
        </mxCell>
        <mxCell id="4VQwYeKklxp4f4X8uhiD-20" value="Authorize ?" style="rhombus;whiteSpace=wrap;html=1;rounded=1;" vertex="1" parent="1">
          <mxGeometry x="256.78999999999996" y="256" width="80" height="80" as="geometry" />
        </mxCell>
        <mxCell id="4VQwYeKklxp4f4X8uhiD-22" style="edgeStyle=orthogonalEdgeStyle;rounded=0;orthogonalLoop=1;jettySize=auto;html=1;exitX=0.496;exitY=0.954;exitDx=0;exitDy=0;exitPerimeter=0;entryX=0.5;entryY=0;entryDx=0;entryDy=0;" edge="1" parent="1">
          <mxGeometry relative="1" as="geometry">
            <Array as="points" />
            <mxPoint x="298.4699999999998" y="332.32000000000016" as="sourcePoint" />
            <mxPoint x="297.0100000000002" y="368" as="targetPoint" />
          </mxGeometry>
        </mxCell>
        <mxCell id="4VQwYeKklxp4f4X8uhiD-23" value="yes" style="edgeLabel;html=1;align=center;verticalAlign=middle;resizable=0;points=[];" vertex="1" connectable="0" parent="4VQwYeKklxp4f4X8uhiD-22">
          <mxGeometry x="-0.2122" relative="1" as="geometry">
            <mxPoint as="offset" />
          </mxGeometry>
        </mxCell>
        <mxCell id="4VQwYeKklxp4f4X8uhiD-26" style="edgeStyle=orthogonalEdgeStyle;rounded=0;orthogonalLoop=1;jettySize=auto;html=1;entryX=0;entryY=0.5;entryDx=0;entryDy=0;" edge="1" parent="1" source="4VQwYeKklxp4f4X8uhiD-24" target="4VQwYeKklxp4f4X8uhiD-2">
          <mxGeometry relative="1" as="geometry" />
        </mxCell>
        <mxCell id="4VQwYeKklxp4f4X8uhiD-27" style="edgeStyle=orthogonalEdgeStyle;rounded=0;orthogonalLoop=1;jettySize=auto;html=1;entryX=0.5;entryY=0;entryDx=0;entryDy=0;" edge="1" parent="1" source="4VQwYeKklxp4f4X8uhiD-2" target="4VQwYeKklxp4f4X8uhiD-17">
          <mxGeometry relative="1" as="geometry">
            <Array as="points">
              <mxPoint x="500" y="510" />
              <mxPoint x="300" y="510" />
            </Array>
          </mxGeometry>
        </mxCell>
      </root>
    </mxGraphModel>
  </diagram>
  <diagram id="ZIACTyNqvpC-SCjAMK2n" name="Page-2">
    <mxGraphModel dx="694" dy="360" grid="1" gridSize="10" guides="1" tooltips="1" connect="1" arrows="1" fold="1" page="1" pageScale="1" pageWidth="850" pageHeight="1100" math="0" shadow="0">
      <root>
        <mxCell id="0" />
        <mxCell id="1" parent="0" />
        <mxCell id="Zp-QDIGC-_0p_M7-5lC0-1" value="System" style="swimlane;whiteSpace=wrap;html=1;startSize=23;" vertex="1" parent="1">
          <mxGeometry x="400" y="6" width="200" height="744" as="geometry" />
        </mxCell>
        <mxCell id="Zp-QDIGC-_0p_M7-5lC0-2" value="Fetch all data record related to top-ups detail base on filter data&amp;nbsp;" style="whiteSpace=wrap;html=1;rounded=1;" vertex="1" parent="Zp-QDIGC-_0p_M7-5lC0-1">
          <mxGeometry x="25" y="494" width="150" height="68" as="geometry" />
        </mxCell>
        <mxCell id="Zp-QDIGC-_0p_M7-5lC0-3" value="" style="endArrow=none;html=1;rounded=0;" edge="1" parent="1">
          <mxGeometry width="50" height="50" relative="1" as="geometry">
            <mxPoint x="400" y="396" as="sourcePoint" />
            <mxPoint x="400" y="66" as="targetPoint" />
          </mxGeometry>
        </mxCell>
        <mxCell id="Zp-QDIGC-_0p_M7-5lC0-4" style="edgeStyle=orthogonalEdgeStyle;rounded=0;orthogonalLoop=1;jettySize=auto;html=1;" edge="1" parent="1" source="Zp-QDIGC-_0p_M7-5lC0-5">
          <mxGeometry relative="1" as="geometry">
            <mxPoint x="295" y="139.9999999999999" as="targetPoint" />
          </mxGeometry>
        </mxCell>
        <mxCell id="Zp-QDIGC-_0p_M7-5lC0-5" value="" style="ellipse;fillColor=strokeColor;" vertex="1" parent="1">
          <mxGeometry x="280" y="66" width="30" height="30" as="geometry" />
        </mxCell>
        <mxCell id="Zp-QDIGC-_0p_M7-5lC0-6" style="edgeStyle=orthogonalEdgeStyle;rounded=0;orthogonalLoop=1;jettySize=auto;html=1;entryX=0.5;entryY=1;entryDx=0;entryDy=0;exitX=0.044;exitY=0.506;exitDx=0;exitDy=0;exitPerimeter=0;" edge="1" parent="1" source="Zp-QDIGC-_0p_M7-5lC0-9" target="Zp-QDIGC-_0p_M7-5lC0-10">
          <mxGeometry relative="1" as="geometry">
            <Array as="points">
              <mxPoint x="215" y="182" />
            </Array>
          </mxGeometry>
        </mxCell>
        <mxCell id="Zp-QDIGC-_0p_M7-5lC0-7" value="no" style="edgeLabel;html=1;align=center;verticalAlign=middle;resizable=0;points=[];" vertex="1" connectable="0" parent="Zp-QDIGC-_0p_M7-5lC0-6">
          <mxGeometry x="-0.5833" y="-1" relative="1" as="geometry">
            <mxPoint x="5" as="offset" />
          </mxGeometry>
        </mxCell>
        <mxCell id="Zp-QDIGC-_0p_M7-5lC0-8" style="edgeStyle=orthogonalEdgeStyle;rounded=0;orthogonalLoop=1;jettySize=auto;html=1;entryX=0.481;entryY=0.051;entryDx=0;entryDy=0;entryPerimeter=0;" edge="1" parent="1" target="Zp-QDIGC-_0p_M7-5lC0-21">
          <mxGeometry relative="1" as="geometry">
            <mxPoint x="294.88" y="256" as="targetPoint" />
            <mxPoint x="294.8800000000001" y="219.9999999999999" as="sourcePoint" />
          </mxGeometry>
        </mxCell>
        <mxCell id="Zp-QDIGC-_0p_M7-5lC0-9" value="Authenticate ?" style="rhombus;rounded=1;" vertex="1" parent="1">
          <mxGeometry x="246.79" y="136" width="96.43" height="90" as="geometry" />
        </mxCell>
        <mxCell id="Zp-QDIGC-_0p_M7-5lC0-10" value="" style="shape=sumEllipse;perimeter=ellipsePerimeter;whiteSpace=wrap;html=1;backgroundOutline=1;" vertex="1" parent="1">
          <mxGeometry x="200" y="76" width="30" height="30" as="geometry" />
        </mxCell>
        <mxCell id="Zp-QDIGC-_0p_M7-5lC0-11" style="edgeStyle=orthogonalEdgeStyle;rounded=0;orthogonalLoop=1;jettySize=auto;html=1;entryX=1;entryY=0.5;entryDx=0;entryDy=0;exitX=0.96;exitY=0.506;exitDx=0;exitDy=0;exitPerimeter=0;" edge="1" parent="1" source="Zp-QDIGC-_0p_M7-5lC0-21" target="Zp-QDIGC-_0p_M7-5lC0-5">
          <mxGeometry relative="1" as="geometry">
            <Array as="points">
              <mxPoint x="360" y="297" />
              <mxPoint x="360" y="81" />
            </Array>
            <mxPoint x="335" y="296" as="sourcePoint" />
          </mxGeometry>
        </mxCell>
        <mxCell id="Zp-QDIGC-_0p_M7-5lC0-12" value="no" style="edgeLabel;html=1;align=center;verticalAlign=middle;resizable=0;points=[];" vertex="1" connectable="0" parent="Zp-QDIGC-_0p_M7-5lC0-11">
          <mxGeometry x="-0.9586" y="2" relative="1" as="geometry">
            <mxPoint x="6" as="offset" />
          </mxGeometry>
        </mxCell>
        <mxCell id="Zp-QDIGC-_0p_M7-5lC0-13" value="You are here" style="text;html=1;strokeColor=none;fillColor=none;align=center;verticalAlign=middle;whiteSpace=wrap;rounded=0;" vertex="1" parent="1">
          <mxGeometry x="238.39999999999998" y="36" width="113.21" height="30" as="geometry" />
        </mxCell>
        <mxCell id="Zp-QDIGC-_0p_M7-5lC0-14" style="edgeStyle=orthogonalEdgeStyle;rounded=0;orthogonalLoop=1;jettySize=auto;html=1;entryX=0.5;entryY=0;entryDx=0;entryDy=0;" edge="1" parent="1" source="Zp-QDIGC-_0p_M7-5lC0-15" target="Zp-QDIGC-_0p_M7-5lC0-20">
          <mxGeometry relative="1" as="geometry" />
        </mxCell>
        <mxCell id="Zp-QDIGC-_0p_M7-5lC0-15" value="View top-ups report" style="rounded=1;whiteSpace=wrap;html=1;" vertex="1" parent="1">
          <mxGeometry x="240.02" y="368" width="109.98" height="40" as="geometry" />
        </mxCell>
        <mxCell id="Zp-QDIGC-_0p_M7-5lC0-16" value="Cient" style="swimlane;whiteSpace=wrap;html=1;startSize=23;" vertex="1" parent="1">
          <mxGeometry x="190" y="6" width="210" height="744" as="geometry" />
        </mxCell>
        <mxCell id="Zp-QDIGC-_0p_M7-5lC0-17" value="Display top-ups report" style="whiteSpace=wrap;html=1;rounded=1;" vertex="1" parent="Zp-QDIGC-_0p_M7-5lC0-16">
          <mxGeometry x="50.01" y="604" width="120" height="40" as="geometry" />
        </mxCell>
        <mxCell id="Zp-QDIGC-_0p_M7-5lC0-18" style="edgeStyle=orthogonalEdgeStyle;rounded=0;orthogonalLoop=1;jettySize=auto;html=1;entryX=0.5;entryY=0;entryDx=0;entryDy=0;exitX=0.5;exitY=1;exitDx=0;exitDy=0;" edge="1" parent="Zp-QDIGC-_0p_M7-5lC0-16" source="Zp-QDIGC-_0p_M7-5lC0-17" target="Zp-QDIGC-_0p_M7-5lC0-19">
          <mxGeometry relative="1" as="geometry">
            <mxPoint x="132" y="664" as="sourcePoint" />
          </mxGeometry>
        </mxCell>
        <mxCell id="Zp-QDIGC-_0p_M7-5lC0-19" value="" style="ellipse;html=1;shape=endState;fillColor=strokeColor;" vertex="1" parent="Zp-QDIGC-_0p_M7-5lC0-16">
          <mxGeometry x="95.01" y="684" width="30" height="30" as="geometry" />
        </mxCell>
        <mxCell id="HrCiCeb_d6clfCaTN-2W-2" style="edgeStyle=orthogonalEdgeStyle;rounded=0;orthogonalLoop=1;jettySize=auto;html=1;entryX=0.5;entryY=0;entryDx=0;entryDy=0;" edge="1" parent="Zp-QDIGC-_0p_M7-5lC0-16" source="Zp-QDIGC-_0p_M7-5lC0-20" target="HrCiCeb_d6clfCaTN-2W-1">
          <mxGeometry relative="1" as="geometry" />
        </mxCell>
        <mxCell id="Zp-QDIGC-_0p_M7-5lC0-20" value="Filter data by date period" style="rounded=1;whiteSpace=wrap;html=1;" vertex="1" parent="Zp-QDIGC-_0p_M7-5lC0-16">
          <mxGeometry x="50.01000000000002" y="434" width="109.98" height="40" as="geometry" />
        </mxCell>
        <mxCell id="HrCiCeb_d6clfCaTN-2W-1" value="Filter data of top-up by who" style="rounded=1;whiteSpace=wrap;html=1;" vertex="1" parent="Zp-QDIGC-_0p_M7-5lC0-16">
          <mxGeometry x="50.01000000000002" y="504" width="109.98" height="40" as="geometry" />
        </mxCell>
        <mxCell id="Zp-QDIGC-_0p_M7-5lC0-21" value="Authorize ?" style="rhombus;whiteSpace=wrap;html=1;rounded=1;" vertex="1" parent="1">
          <mxGeometry x="256.78999999999996" y="256" width="80" height="80" as="geometry" />
        </mxCell>
        <mxCell id="Zp-QDIGC-_0p_M7-5lC0-22" style="edgeStyle=orthogonalEdgeStyle;rounded=0;orthogonalLoop=1;jettySize=auto;html=1;exitX=0.496;exitY=0.954;exitDx=0;exitDy=0;exitPerimeter=0;entryX=0.5;entryY=0;entryDx=0;entryDy=0;" edge="1" parent="1">
          <mxGeometry relative="1" as="geometry">
            <Array as="points" />
            <mxPoint x="298.4699999999998" y="332.32000000000016" as="sourcePoint" />
            <mxPoint x="297.0100000000002" y="368" as="targetPoint" />
          </mxGeometry>
        </mxCell>
        <mxCell id="Zp-QDIGC-_0p_M7-5lC0-23" value="yes" style="edgeLabel;html=1;align=center;verticalAlign=middle;resizable=0;points=[];" vertex="1" connectable="0" parent="Zp-QDIGC-_0p_M7-5lC0-22">
          <mxGeometry x="-0.2122" relative="1" as="geometry">
            <mxPoint as="offset" />
          </mxGeometry>
        </mxCell>
        <mxCell id="Zp-QDIGC-_0p_M7-5lC0-25" style="edgeStyle=orthogonalEdgeStyle;rounded=0;orthogonalLoop=1;jettySize=auto;html=1;entryX=0.5;entryY=0;entryDx=0;entryDy=0;" edge="1" parent="1" source="Zp-QDIGC-_0p_M7-5lC0-2" target="Zp-QDIGC-_0p_M7-5lC0-17">
          <mxGeometry relative="1" as="geometry">
            <Array as="points">
              <mxPoint x="500" y="580" />
              <mxPoint x="300" y="580" />
            </Array>
          </mxGeometry>
        </mxCell>
        <mxCell id="HrCiCeb_d6clfCaTN-2W-3" style="edgeStyle=orthogonalEdgeStyle;rounded=0;orthogonalLoop=1;jettySize=auto;html=1;entryX=0.007;entryY=0.435;entryDx=0;entryDy=0;entryPerimeter=0;" edge="1" parent="1" source="HrCiCeb_d6clfCaTN-2W-1" target="Zp-QDIGC-_0p_M7-5lC0-2">
          <mxGeometry relative="1" as="geometry" />
        </mxCell>
      </root>
    </mxGraphModel>
  </diagram>
  <diagram id="_94I1Wi9RYlf48BBshXT" name="Page-3">
    <mxGraphModel dx="1085" dy="563" grid="1" gridSize="10" guides="1" tooltips="1" connect="1" arrows="1" fold="1" page="1" pageScale="1" pageWidth="850" pageHeight="1100" math="0" shadow="0">
      <root>
        <mxCell id="0" />
        <mxCell id="1" parent="0" />
        <mxCell id="cW3o526axtMfcfJwknO1-1" value="System" style="swimlane;whiteSpace=wrap;html=1;startSize=23;" vertex="1" parent="1">
          <mxGeometry x="400" y="6" width="200" height="744" as="geometry" />
        </mxCell>
        <mxCell id="cW3o526axtMfcfJwknO1-2" value="Fetch all data record related to orders base on filter data&amp;nbsp;" style="whiteSpace=wrap;html=1;rounded=1;" vertex="1" parent="cW3o526axtMfcfJwknO1-1">
          <mxGeometry x="25" y="494" width="150" height="68" as="geometry" />
        </mxCell>
        <mxCell id="cW3o526axtMfcfJwknO1-3" value="" style="endArrow=none;html=1;rounded=0;" edge="1" parent="1">
          <mxGeometry width="50" height="50" relative="1" as="geometry">
            <mxPoint x="400" y="396" as="sourcePoint" />
            <mxPoint x="400" y="66" as="targetPoint" />
          </mxGeometry>
        </mxCell>
        <mxCell id="cW3o526axtMfcfJwknO1-4" style="edgeStyle=orthogonalEdgeStyle;rounded=0;orthogonalLoop=1;jettySize=auto;html=1;" edge="1" parent="1" source="cW3o526axtMfcfJwknO1-5">
          <mxGeometry relative="1" as="geometry">
            <mxPoint x="295" y="139.9999999999999" as="targetPoint" />
          </mxGeometry>
        </mxCell>
        <mxCell id="cW3o526axtMfcfJwknO1-5" value="" style="ellipse;fillColor=strokeColor;" vertex="1" parent="1">
          <mxGeometry x="280" y="66" width="30" height="30" as="geometry" />
        </mxCell>
        <mxCell id="cW3o526axtMfcfJwknO1-6" style="edgeStyle=orthogonalEdgeStyle;rounded=0;orthogonalLoop=1;jettySize=auto;html=1;entryX=0.5;entryY=1;entryDx=0;entryDy=0;exitX=0.044;exitY=0.506;exitDx=0;exitDy=0;exitPerimeter=0;" edge="1" parent="1" source="cW3o526axtMfcfJwknO1-9" target="cW3o526axtMfcfJwknO1-10">
          <mxGeometry relative="1" as="geometry">
            <Array as="points">
              <mxPoint x="215" y="182" />
            </Array>
          </mxGeometry>
        </mxCell>
        <mxCell id="cW3o526axtMfcfJwknO1-7" value="no" style="edgeLabel;html=1;align=center;verticalAlign=middle;resizable=0;points=[];" vertex="1" connectable="0" parent="cW3o526axtMfcfJwknO1-6">
          <mxGeometry x="-0.5833" y="-1" relative="1" as="geometry">
            <mxPoint x="5" as="offset" />
          </mxGeometry>
        </mxCell>
        <mxCell id="cW3o526axtMfcfJwknO1-8" style="edgeStyle=orthogonalEdgeStyle;rounded=0;orthogonalLoop=1;jettySize=auto;html=1;entryX=0.481;entryY=0.051;entryDx=0;entryDy=0;entryPerimeter=0;" edge="1" parent="1" target="cW3o526axtMfcfJwknO1-23">
          <mxGeometry relative="1" as="geometry">
            <mxPoint x="294.88" y="256" as="targetPoint" />
            <mxPoint x="294.8800000000001" y="219.9999999999999" as="sourcePoint" />
          </mxGeometry>
        </mxCell>
        <mxCell id="cW3o526axtMfcfJwknO1-9" value="Authenticate ?" style="rhombus;rounded=1;" vertex="1" parent="1">
          <mxGeometry x="246.79" y="136" width="96.43" height="90" as="geometry" />
        </mxCell>
        <mxCell id="cW3o526axtMfcfJwknO1-10" value="" style="shape=sumEllipse;perimeter=ellipsePerimeter;whiteSpace=wrap;html=1;backgroundOutline=1;" vertex="1" parent="1">
          <mxGeometry x="200" y="76" width="30" height="30" as="geometry" />
        </mxCell>
        <mxCell id="cW3o526axtMfcfJwknO1-11" style="edgeStyle=orthogonalEdgeStyle;rounded=0;orthogonalLoop=1;jettySize=auto;html=1;entryX=1;entryY=0.5;entryDx=0;entryDy=0;exitX=0.96;exitY=0.506;exitDx=0;exitDy=0;exitPerimeter=0;" edge="1" parent="1" source="cW3o526axtMfcfJwknO1-23" target="cW3o526axtMfcfJwknO1-5">
          <mxGeometry relative="1" as="geometry">
            <Array as="points">
              <mxPoint x="360" y="297" />
              <mxPoint x="360" y="81" />
            </Array>
            <mxPoint x="335" y="296" as="sourcePoint" />
          </mxGeometry>
        </mxCell>
        <mxCell id="cW3o526axtMfcfJwknO1-12" value="no" style="edgeLabel;html=1;align=center;verticalAlign=middle;resizable=0;points=[];" vertex="1" connectable="0" parent="cW3o526axtMfcfJwknO1-11">
          <mxGeometry x="-0.9586" y="2" relative="1" as="geometry">
            <mxPoint x="6" as="offset" />
          </mxGeometry>
        </mxCell>
        <mxCell id="cW3o526axtMfcfJwknO1-13" value="You are here" style="text;html=1;strokeColor=none;fillColor=none;align=center;verticalAlign=middle;whiteSpace=wrap;rounded=0;" vertex="1" parent="1">
          <mxGeometry x="238.39999999999998" y="36" width="113.21" height="30" as="geometry" />
        </mxCell>
        <mxCell id="cW3o526axtMfcfJwknO1-14" style="edgeStyle=orthogonalEdgeStyle;rounded=0;orthogonalLoop=1;jettySize=auto;html=1;entryX=0.5;entryY=0;entryDx=0;entryDy=0;" edge="1" parent="1" source="cW3o526axtMfcfJwknO1-15" target="cW3o526axtMfcfJwknO1-21">
          <mxGeometry relative="1" as="geometry" />
        </mxCell>
        <mxCell id="cW3o526axtMfcfJwknO1-15" value="View orders report" style="rounded=1;whiteSpace=wrap;html=1;" vertex="1" parent="1">
          <mxGeometry x="240.02" y="368" width="109.98" height="40" as="geometry" />
        </mxCell>
        <mxCell id="cW3o526axtMfcfJwknO1-16" value="Cient" style="swimlane;whiteSpace=wrap;html=1;startSize=23;" vertex="1" parent="1">
          <mxGeometry x="190" y="6" width="210" height="744" as="geometry" />
        </mxCell>
        <mxCell id="cW3o526axtMfcfJwknO1-17" value="Display orders report" style="whiteSpace=wrap;html=1;rounded=1;" vertex="1" parent="cW3o526axtMfcfJwknO1-16">
          <mxGeometry x="50.01" y="604" width="120" height="40" as="geometry" />
        </mxCell>
        <mxCell id="cW3o526axtMfcfJwknO1-18" style="edgeStyle=orthogonalEdgeStyle;rounded=0;orthogonalLoop=1;jettySize=auto;html=1;entryX=0.5;entryY=0;entryDx=0;entryDy=0;exitX=0.5;exitY=1;exitDx=0;exitDy=0;" edge="1" parent="cW3o526axtMfcfJwknO1-16" source="cW3o526axtMfcfJwknO1-17" target="cW3o526axtMfcfJwknO1-19">
          <mxGeometry relative="1" as="geometry">
            <mxPoint x="132" y="664" as="sourcePoint" />
          </mxGeometry>
        </mxCell>
        <mxCell id="cW3o526axtMfcfJwknO1-19" value="" style="ellipse;html=1;shape=endState;fillColor=strokeColor;" vertex="1" parent="cW3o526axtMfcfJwknO1-16">
          <mxGeometry x="95.01" y="684" width="30" height="30" as="geometry" />
        </mxCell>
        <mxCell id="cW3o526axtMfcfJwknO1-20" style="edgeStyle=orthogonalEdgeStyle;rounded=0;orthogonalLoop=1;jettySize=auto;html=1;entryX=0.5;entryY=0;entryDx=0;entryDy=0;" edge="1" parent="cW3o526axtMfcfJwknO1-16" source="cW3o526axtMfcfJwknO1-21" target="cW3o526axtMfcfJwknO1-22">
          <mxGeometry relative="1" as="geometry" />
        </mxCell>
        <mxCell id="cW3o526axtMfcfJwknO1-21" value="Filter data by date period" style="rounded=1;whiteSpace=wrap;html=1;" vertex="1" parent="cW3o526axtMfcfJwknO1-16">
          <mxGeometry x="50.01000000000002" y="434" width="109.98" height="40" as="geometry" />
        </mxCell>
        <mxCell id="cW3o526axtMfcfJwknO1-22" value="Filter data by type of payment" style="rounded=1;whiteSpace=wrap;html=1;" vertex="1" parent="cW3o526axtMfcfJwknO1-16">
          <mxGeometry x="50.01000000000002" y="504" width="109.98" height="40" as="geometry" />
        </mxCell>
        <mxCell id="cW3o526axtMfcfJwknO1-23" value="Authorize ?" style="rhombus;whiteSpace=wrap;html=1;rounded=1;" vertex="1" parent="1">
          <mxGeometry x="256.78999999999996" y="256" width="80" height="80" as="geometry" />
        </mxCell>
        <mxCell id="cW3o526axtMfcfJwknO1-24" style="edgeStyle=orthogonalEdgeStyle;rounded=0;orthogonalLoop=1;jettySize=auto;html=1;exitX=0.496;exitY=0.954;exitDx=0;exitDy=0;exitPerimeter=0;entryX=0.5;entryY=0;entryDx=0;entryDy=0;" edge="1" parent="1">
          <mxGeometry relative="1" as="geometry">
            <Array as="points" />
            <mxPoint x="298.4699999999997" y="332.32000000000016" as="sourcePoint" />
            <mxPoint x="297.0100000000002" y="368" as="targetPoint" />
          </mxGeometry>
        </mxCell>
        <mxCell id="cW3o526axtMfcfJwknO1-25" value="yes" style="edgeLabel;html=1;align=center;verticalAlign=middle;resizable=0;points=[];" vertex="1" connectable="0" parent="cW3o526axtMfcfJwknO1-24">
          <mxGeometry x="-0.2122" relative="1" as="geometry">
            <mxPoint as="offset" />
          </mxGeometry>
        </mxCell>
        <mxCell id="cW3o526axtMfcfJwknO1-26" style="edgeStyle=orthogonalEdgeStyle;rounded=0;orthogonalLoop=1;jettySize=auto;html=1;entryX=0.5;entryY=0;entryDx=0;entryDy=0;" edge="1" parent="1" source="cW3o526axtMfcfJwknO1-2" target="cW3o526axtMfcfJwknO1-17">
          <mxGeometry relative="1" as="geometry">
            <Array as="points">
              <mxPoint x="500" y="580" />
              <mxPoint x="300" y="580" />
            </Array>
          </mxGeometry>
        </mxCell>
        <mxCell id="cW3o526axtMfcfJwknO1-27" style="edgeStyle=orthogonalEdgeStyle;rounded=0;orthogonalLoop=1;jettySize=auto;html=1;entryX=0.007;entryY=0.435;entryDx=0;entryDy=0;entryPerimeter=0;" edge="1" parent="1" source="cW3o526axtMfcfJwknO1-22" target="cW3o526axtMfcfJwknO1-2">
          <mxGeometry relative="1" as="geometry" />
        </mxCell>
      </root>
    </mxGraphModel>
  </diagram>
  <diagram id="Gu893W85UQGVaOH6JZBW" name="Page-4">
    <mxGraphModel dx="868" dy="450" grid="1" gridSize="10" guides="1" tooltips="1" connect="1" arrows="1" fold="1" page="1" pageScale="1" pageWidth="850" pageHeight="1100" math="0" shadow="0">
      <root>
        <mxCell id="0" />
        <mxCell id="1" parent="0" />
        <mxCell id="qNrN6tMHcXxcO9rNkGCo-1" value="System" style="swimlane;whiteSpace=wrap;html=1;startSize=23;" vertex="1" parent="1">
          <mxGeometry x="400" y="6" width="200" height="744" as="geometry" />
        </mxCell>
        <mxCell id="qNrN6tMHcXxcO9rNkGCo-2" value="Fetch all data record related to orders base on filter data&amp;nbsp;" style="whiteSpace=wrap;html=1;rounded=1;" vertex="1" parent="qNrN6tMHcXxcO9rNkGCo-1">
          <mxGeometry x="25" y="494" width="150" height="68" as="geometry" />
        </mxCell>
        <mxCell id="qNrN6tMHcXxcO9rNkGCo-3" value="" style="endArrow=none;html=1;rounded=0;" edge="1" parent="1">
          <mxGeometry width="50" height="50" relative="1" as="geometry">
            <mxPoint x="400" y="396" as="sourcePoint" />
            <mxPoint x="400" y="66" as="targetPoint" />
          </mxGeometry>
        </mxCell>
        <mxCell id="qNrN6tMHcXxcO9rNkGCo-4" style="edgeStyle=orthogonalEdgeStyle;rounded=0;orthogonalLoop=1;jettySize=auto;html=1;" edge="1" parent="1" source="qNrN6tMHcXxcO9rNkGCo-5">
          <mxGeometry relative="1" as="geometry">
            <mxPoint x="295" y="139.9999999999999" as="targetPoint" />
          </mxGeometry>
        </mxCell>
        <mxCell id="qNrN6tMHcXxcO9rNkGCo-5" value="" style="ellipse;fillColor=strokeColor;" vertex="1" parent="1">
          <mxGeometry x="280" y="66" width="30" height="30" as="geometry" />
        </mxCell>
        <mxCell id="qNrN6tMHcXxcO9rNkGCo-6" style="edgeStyle=orthogonalEdgeStyle;rounded=0;orthogonalLoop=1;jettySize=auto;html=1;entryX=0.5;entryY=1;entryDx=0;entryDy=0;exitX=0.044;exitY=0.506;exitDx=0;exitDy=0;exitPerimeter=0;" edge="1" parent="1" source="qNrN6tMHcXxcO9rNkGCo-9" target="qNrN6tMHcXxcO9rNkGCo-10">
          <mxGeometry relative="1" as="geometry">
            <Array as="points">
              <mxPoint x="215" y="182" />
            </Array>
          </mxGeometry>
        </mxCell>
        <mxCell id="qNrN6tMHcXxcO9rNkGCo-7" value="no" style="edgeLabel;html=1;align=center;verticalAlign=middle;resizable=0;points=[];" vertex="1" connectable="0" parent="qNrN6tMHcXxcO9rNkGCo-6">
          <mxGeometry x="-0.5833" y="-1" relative="1" as="geometry">
            <mxPoint x="5" as="offset" />
          </mxGeometry>
        </mxCell>
        <mxCell id="qNrN6tMHcXxcO9rNkGCo-8" style="edgeStyle=orthogonalEdgeStyle;rounded=0;orthogonalLoop=1;jettySize=auto;html=1;entryX=0.481;entryY=0.051;entryDx=0;entryDy=0;entryPerimeter=0;" edge="1" parent="1" target="qNrN6tMHcXxcO9rNkGCo-23">
          <mxGeometry relative="1" as="geometry">
            <mxPoint x="294.88" y="256" as="targetPoint" />
            <mxPoint x="294.8800000000001" y="219.9999999999999" as="sourcePoint" />
          </mxGeometry>
        </mxCell>
        <mxCell id="qNrN6tMHcXxcO9rNkGCo-9" value="Authenticate ?" style="rhombus;rounded=1;" vertex="1" parent="1">
          <mxGeometry x="246.79" y="136" width="96.43" height="90" as="geometry" />
        </mxCell>
        <mxCell id="qNrN6tMHcXxcO9rNkGCo-10" value="" style="shape=sumEllipse;perimeter=ellipsePerimeter;whiteSpace=wrap;html=1;backgroundOutline=1;" vertex="1" parent="1">
          <mxGeometry x="200" y="76" width="30" height="30" as="geometry" />
        </mxCell>
        <mxCell id="qNrN6tMHcXxcO9rNkGCo-11" style="edgeStyle=orthogonalEdgeStyle;rounded=0;orthogonalLoop=1;jettySize=auto;html=1;entryX=1;entryY=0.5;entryDx=0;entryDy=0;exitX=0.96;exitY=0.506;exitDx=0;exitDy=0;exitPerimeter=0;" edge="1" parent="1" source="qNrN6tMHcXxcO9rNkGCo-23" target="qNrN6tMHcXxcO9rNkGCo-5">
          <mxGeometry relative="1" as="geometry">
            <Array as="points">
              <mxPoint x="360" y="297" />
              <mxPoint x="360" y="81" />
            </Array>
            <mxPoint x="335" y="296" as="sourcePoint" />
          </mxGeometry>
        </mxCell>
        <mxCell id="qNrN6tMHcXxcO9rNkGCo-12" value="no" style="edgeLabel;html=1;align=center;verticalAlign=middle;resizable=0;points=[];" vertex="1" connectable="0" parent="qNrN6tMHcXxcO9rNkGCo-11">
          <mxGeometry x="-0.9586" y="2" relative="1" as="geometry">
            <mxPoint x="6" as="offset" />
          </mxGeometry>
        </mxCell>
        <mxCell id="qNrN6tMHcXxcO9rNkGCo-13" value="You are here" style="text;html=1;strokeColor=none;fillColor=none;align=center;verticalAlign=middle;whiteSpace=wrap;rounded=0;" vertex="1" parent="1">
          <mxGeometry x="238.39999999999998" y="36" width="113.21" height="30" as="geometry" />
        </mxCell>
        <mxCell id="qNrN6tMHcXxcO9rNkGCo-14" style="edgeStyle=orthogonalEdgeStyle;rounded=0;orthogonalLoop=1;jettySize=auto;html=1;entryX=0.5;entryY=0;entryDx=0;entryDy=0;" edge="1" parent="1" source="qNrN6tMHcXxcO9rNkGCo-15" target="qNrN6tMHcXxcO9rNkGCo-21">
          <mxGeometry relative="1" as="geometry" />
        </mxCell>
        <mxCell id="qNrN6tMHcXxcO9rNkGCo-15" value="View sale" style="rounded=1;whiteSpace=wrap;html=1;" vertex="1" parent="1">
          <mxGeometry x="240.02" y="368" width="109.98" height="40" as="geometry" />
        </mxCell>
        <mxCell id="qNrN6tMHcXxcO9rNkGCo-16" value="Cient" style="swimlane;whiteSpace=wrap;html=1;startSize=23;" vertex="1" parent="1">
          <mxGeometry x="190" y="6" width="210" height="744" as="geometry" />
        </mxCell>
        <mxCell id="qNrN6tMHcXxcO9rNkGCo-17" value="Display orders report" style="whiteSpace=wrap;html=1;rounded=1;" vertex="1" parent="qNrN6tMHcXxcO9rNkGCo-16">
          <mxGeometry x="50.01" y="604" width="120" height="40" as="geometry" />
        </mxCell>
        <mxCell id="qNrN6tMHcXxcO9rNkGCo-18" style="edgeStyle=orthogonalEdgeStyle;rounded=0;orthogonalLoop=1;jettySize=auto;html=1;entryX=0.5;entryY=0;entryDx=0;entryDy=0;exitX=0.5;exitY=1;exitDx=0;exitDy=0;" edge="1" parent="qNrN6tMHcXxcO9rNkGCo-16" source="qNrN6tMHcXxcO9rNkGCo-17" target="qNrN6tMHcXxcO9rNkGCo-19">
          <mxGeometry relative="1" as="geometry">
            <mxPoint x="132" y="664" as="sourcePoint" />
          </mxGeometry>
        </mxCell>
        <mxCell id="qNrN6tMHcXxcO9rNkGCo-19" value="" style="ellipse;html=1;shape=endState;fillColor=strokeColor;" vertex="1" parent="qNrN6tMHcXxcO9rNkGCo-16">
          <mxGeometry x="95.01" y="684" width="30" height="30" as="geometry" />
        </mxCell>
        <mxCell id="qNrN6tMHcXxcO9rNkGCo-20" style="edgeStyle=orthogonalEdgeStyle;rounded=0;orthogonalLoop=1;jettySize=auto;html=1;entryX=0.5;entryY=0;entryDx=0;entryDy=0;" edge="1" parent="qNrN6tMHcXxcO9rNkGCo-16" source="qNrN6tMHcXxcO9rNkGCo-21" target="qNrN6tMHcXxcO9rNkGCo-22">
          <mxGeometry relative="1" as="geometry" />
        </mxCell>
        <mxCell id="qNrN6tMHcXxcO9rNkGCo-21" value="Filter data by date period" style="rounded=1;whiteSpace=wrap;html=1;" vertex="1" parent="qNrN6tMHcXxcO9rNkGCo-16">
          <mxGeometry x="50.01000000000002" y="434" width="109.98" height="40" as="geometry" />
        </mxCell>
        <mxCell id="qNrN6tMHcXxcO9rNkGCo-22" value="Filter data by type of payment" style="rounded=1;whiteSpace=wrap;html=1;" vertex="1" parent="qNrN6tMHcXxcO9rNkGCo-16">
          <mxGeometry x="50.01000000000002" y="504" width="109.98" height="40" as="geometry" />
        </mxCell>
        <mxCell id="qNrN6tMHcXxcO9rNkGCo-23" value="Authorize ?" style="rhombus;whiteSpace=wrap;html=1;rounded=1;" vertex="1" parent="1">
          <mxGeometry x="256.78999999999996" y="256" width="80" height="80" as="geometry" />
        </mxCell>
        <mxCell id="qNrN6tMHcXxcO9rNkGCo-24" style="edgeStyle=orthogonalEdgeStyle;rounded=0;orthogonalLoop=1;jettySize=auto;html=1;exitX=0.496;exitY=0.954;exitDx=0;exitDy=0;exitPerimeter=0;entryX=0.5;entryY=0;entryDx=0;entryDy=0;" edge="1" parent="1">
          <mxGeometry relative="1" as="geometry">
            <Array as="points" />
            <mxPoint x="298.4699999999998" y="332.32000000000016" as="sourcePoint" />
            <mxPoint x="297.0100000000002" y="368" as="targetPoint" />
          </mxGeometry>
        </mxCell>
        <mxCell id="qNrN6tMHcXxcO9rNkGCo-25" value="yes" style="edgeLabel;html=1;align=center;verticalAlign=middle;resizable=0;points=[];" vertex="1" connectable="0" parent="qNrN6tMHcXxcO9rNkGCo-24">
          <mxGeometry x="-0.2122" relative="1" as="geometry">
            <mxPoint as="offset" />
          </mxGeometry>
        </mxCell>
        <mxCell id="qNrN6tMHcXxcO9rNkGCo-26" style="edgeStyle=orthogonalEdgeStyle;rounded=0;orthogonalLoop=1;jettySize=auto;html=1;entryX=0.5;entryY=0;entryDx=0;entryDy=0;" edge="1" parent="1" source="qNrN6tMHcXxcO9rNkGCo-2" target="qNrN6tMHcXxcO9rNkGCo-17">
          <mxGeometry relative="1" as="geometry">
            <Array as="points">
              <mxPoint x="500" y="580" />
              <mxPoint x="300" y="580" />
            </Array>
          </mxGeometry>
        </mxCell>
        <mxCell id="qNrN6tMHcXxcO9rNkGCo-27" style="edgeStyle=orthogonalEdgeStyle;rounded=0;orthogonalLoop=1;jettySize=auto;html=1;entryX=0.007;entryY=0.435;entryDx=0;entryDy=0;entryPerimeter=0;" edge="1" parent="1" source="qNrN6tMHcXxcO9rNkGCo-22" target="qNrN6tMHcXxcO9rNkGCo-2">
          <mxGeometry relative="1" as="geometry" />
        </mxCell>
      </root>
    </mxGraphModel>
  </diagram>
  <diagram id="Opjl3eCo-qNGJjL2I1KH" name="Page-5">
    <mxGraphModel dx="2090" dy="643" grid="1" gridSize="10" guides="1" tooltips="1" connect="1" arrows="1" fold="1" page="1" pageScale="1" pageWidth="850" pageHeight="1100" math="0" shadow="0">
      <root>
        <mxCell id="0" />
        <mxCell id="1" parent="0" />
        <mxCell id="yH5iYspir2nV7czzwESN-16" style="edgeStyle=orthogonalEdgeStyle;rounded=0;orthogonalLoop=1;jettySize=auto;html=1;entryX=0;entryY=0.5;entryDx=0;entryDy=0;" edge="1" parent="1" source="yH5iYspir2nV7czzwESN-1" target="yH5iYspir2nV7czzwESN-15">
          <mxGeometry relative="1" as="geometry" />
        </mxCell>
        <mxCell id="yH5iYspir2nV7czzwESN-1" value="" style="ellipse;fillColor=strokeColor;" vertex="1" parent="1">
          <mxGeometry x="-80" y="20" width="30" height="30" as="geometry" />
        </mxCell>
        <mxCell id="yH5iYspir2nV7czzwESN-11" style="edgeStyle=orthogonalEdgeStyle;rounded=0;orthogonalLoop=1;jettySize=auto;html=1;entryX=0.5;entryY=0.8;entryDx=0;entryDy=0;entryPerimeter=0;" edge="1" parent="1" source="yH5iYspir2nV7czzwESN-2" target="yH5iYspir2nV7czzwESN-9">
          <mxGeometry relative="1" as="geometry" />
        </mxCell>
        <mxCell id="yH5iYspir2nV7czzwESN-2" value="Login" style="rounded=1;whiteSpace=wrap;html=1;" vertex="1" parent="1">
          <mxGeometry x="130" y="12.5" width="90" height="45" as="geometry" />
        </mxCell>
        <mxCell id="yH5iYspir2nV7czzwESN-14" style="edgeStyle=orthogonalEdgeStyle;rounded=0;orthogonalLoop=1;jettySize=auto;html=1;entryX=0.5;entryY=0;entryDx=0;entryDy=0;" edge="1" parent="1" source="yH5iYspir2nV7czzwESN-9" target="yH5iYspir2nV7czzwESN-10">
          <mxGeometry relative="1" as="geometry">
            <Array as="points">
              <mxPoint x="170" y="139" />
              <mxPoint x="125" y="139" />
            </Array>
          </mxGeometry>
        </mxCell>
        <mxCell id="yH5iYspir2nV7czzwESN-9" value="" style="html=1;points=[];perimeter=orthogonalPerimeter;fillColor=strokeColor;rotation=90;" vertex="1" parent="1">
          <mxGeometry x="232.5" y="10" width="5" height="200" as="geometry" />
        </mxCell>
        <mxCell id="yH5iYspir2nV7czzwESN-32" style="edgeStyle=orthogonalEdgeStyle;rounded=0;orthogonalLoop=1;jettySize=auto;html=1;entryX=-0.167;entryY=0.494;entryDx=0;entryDy=0;entryPerimeter=0;" edge="1" parent="1" source="yH5iYspir2nV7czzwESN-10" target="yH5iYspir2nV7czzwESN-18">
          <mxGeometry relative="1" as="geometry" />
        </mxCell>
        <mxCell id="yH5iYspir2nV7czzwESN-10" value="Show customers tab" style="rounded=1;whiteSpace=wrap;html=1;" vertex="1" parent="1">
          <mxGeometry x="-81.25" y="165" width="120" height="45" as="geometry" />
        </mxCell>
        <mxCell id="yH5iYspir2nV7czzwESN-17" style="edgeStyle=orthogonalEdgeStyle;rounded=0;orthogonalLoop=1;jettySize=auto;html=1;entryX=0;entryY=0.5;entryDx=0;entryDy=0;" edge="1" parent="1" source="yH5iYspir2nV7czzwESN-15" target="yH5iYspir2nV7czzwESN-2">
          <mxGeometry relative="1" as="geometry" />
        </mxCell>
        <mxCell id="yH5iYspir2nV7czzwESN-15" value="Start application" style="rounded=1;whiteSpace=wrap;html=1;" vertex="1" parent="1">
          <mxGeometry y="12.5" width="90" height="45" as="geometry" />
        </mxCell>
        <mxCell id="yH5iYspir2nV7czzwESN-33" style="edgeStyle=orthogonalEdgeStyle;rounded=0;orthogonalLoop=1;jettySize=auto;html=1;entryX=0.75;entryY=0;entryDx=0;entryDy=0;" edge="1" parent="1">
          <mxGeometry relative="1" as="geometry">
            <mxPoint x="-19.46666666666647" y="252.5" as="sourcePoint" />
            <mxPoint x="-17" y="290" as="targetPoint" />
          </mxGeometry>
        </mxCell>
        <mxCell id="yH5iYspir2nV7czzwESN-46" style="edgeStyle=orthogonalEdgeStyle;rounded=0;orthogonalLoop=1;jettySize=auto;html=1;entryX=0.441;entryY=0.001;entryDx=0;entryDy=0;entryPerimeter=0;" edge="1" parent="1" source="yH5iYspir2nV7czzwESN-18" target="yH5iYspir2nV7czzwESN-20">
          <mxGeometry relative="1" as="geometry">
            <Array as="points">
              <mxPoint x="100" y="273" />
              <mxPoint x="101" y="273" />
            </Array>
          </mxGeometry>
        </mxCell>
        <mxCell id="yH5iYspir2nV7czzwESN-47" style="edgeStyle=orthogonalEdgeStyle;rounded=0;orthogonalLoop=1;jettySize=auto;html=1;entryX=0.5;entryY=0;entryDx=0;entryDy=0;" edge="1" parent="1" source="yH5iYspir2nV7czzwESN-18" target="yH5iYspir2nV7czzwESN-24">
          <mxGeometry relative="1" as="geometry">
            <Array as="points">
              <mxPoint x="-130" y="260" />
              <mxPoint x="-130" y="260" />
            </Array>
          </mxGeometry>
        </mxCell>
        <mxCell id="yH5iYspir2nV7czzwESN-18" value="" style="html=1;points=[];perimeter=orthogonalPerimeter;fillColor=strokeColor;rotation=90;" vertex="1" parent="1">
          <mxGeometry x="-25" y="115" width="5" height="270" as="geometry" />
        </mxCell>
        <mxCell id="yH5iYspir2nV7czzwESN-49" style="edgeStyle=orthogonalEdgeStyle;rounded=0;orthogonalLoop=1;jettySize=auto;html=1;entryX=-0.49;entryY=0.106;entryDx=0;entryDy=0;entryPerimeter=0;" edge="1" parent="1" source="yH5iYspir2nV7czzwESN-19" target="yH5iYspir2nV7czzwESN-45">
          <mxGeometry relative="1" as="geometry">
            <mxPoint x="80" y="580" as="targetPoint" />
            <Array as="points">
              <mxPoint x="-17" y="330" />
              <mxPoint x="91" y="330" />
            </Array>
          </mxGeometry>
        </mxCell>
        <mxCell id="yH5iYspir2nV7czzwESN-19" value="search customer" style="rounded=1;whiteSpace=wrap;html=1;" vertex="1" parent="1">
          <mxGeometry x="-67.5" y="290" width="100" height="30" as="geometry" />
        </mxCell>
        <mxCell id="yH5iYspir2nV7czzwESN-48" style="edgeStyle=orthogonalEdgeStyle;rounded=0;orthogonalLoop=1;jettySize=auto;html=1;entryX=-0.416;entryY=0.069;entryDx=0;entryDy=0;entryPerimeter=0;" edge="1" parent="1" target="yH5iYspir2nV7czzwESN-45">
          <mxGeometry relative="1" as="geometry">
            <mxPoint x="107.7777777777776" y="320" as="sourcePoint" />
            <mxPoint x="120" y="620" as="targetPoint" />
            <Array as="points">
              <mxPoint x="110" y="320" />
              <mxPoint x="110" y="620" />
            </Array>
          </mxGeometry>
        </mxCell>
        <mxCell id="yH5iYspir2nV7czzwESN-20" value="Add new customer" style="rounded=1;whiteSpace=wrap;html=1;" vertex="1" parent="1">
          <mxGeometry x="50.25" y="290" width="115" height="30" as="geometry" />
        </mxCell>
        <mxCell id="yH5iYspir2nV7czzwESN-54" style="edgeStyle=orthogonalEdgeStyle;rounded=0;orthogonalLoop=1;jettySize=auto;html=1;entryX=-0.3;entryY=0.852;entryDx=0;entryDy=0;entryPerimeter=0;" edge="1" parent="1" source="yH5iYspir2nV7czzwESN-21" target="yH5iYspir2nV7czzwESN-61">
          <mxGeometry relative="1" as="geometry">
            <mxPoint x="-410" y="610" as="targetPoint" />
            <Array as="points">
              <mxPoint x="-256" y="430" />
              <mxPoint x="-410" y="430" />
            </Array>
          </mxGeometry>
        </mxCell>
        <mxCell id="yH5iYspir2nV7czzwESN-21" value="Top up to customer" style="rounded=1;whiteSpace=wrap;html=1;" vertex="1" parent="1">
          <mxGeometry x="-313.75" y="380" width="115" height="30" as="geometry" />
        </mxCell>
        <mxCell id="yH5iYspir2nV7czzwESN-43" style="edgeStyle=orthogonalEdgeStyle;rounded=0;orthogonalLoop=1;jettySize=auto;html=1;" edge="1" parent="1">
          <mxGeometry relative="1" as="geometry">
            <mxPoint x="-126.19999999999993" y="410" as="sourcePoint" />
            <mxPoint x="-127" y="442.5" as="targetPoint" />
          </mxGeometry>
        </mxCell>
        <mxCell id="yH5iYspir2nV7czzwESN-22" value="View customer" style="rounded=1;whiteSpace=wrap;html=1;" vertex="1" parent="1">
          <mxGeometry x="-183.75" y="380" width="115" height="30" as="geometry" />
        </mxCell>
        <mxCell id="yH5iYspir2nV7czzwESN-50" style="edgeStyle=orthogonalEdgeStyle;rounded=0;orthogonalLoop=1;jettySize=auto;html=1;entryX=-0.49;entryY=0.167;entryDx=0;entryDy=0;entryPerimeter=0;" edge="1" parent="1" source="yH5iYspir2nV7czzwESN-23" target="yH5iYspir2nV7czzwESN-45">
          <mxGeometry relative="1" as="geometry">
            <mxPoint x="60" y="620" as="targetPoint" />
            <Array as="points">
              <mxPoint x="6" y="430" />
              <mxPoint x="60" y="430" />
            </Array>
          </mxGeometry>
        </mxCell>
        <mxCell id="yH5iYspir2nV7czzwESN-23" value="Add card to customer" style="rounded=1;whiteSpace=wrap;html=1;" vertex="1" parent="1">
          <mxGeometry x="-51.25" y="380" width="115" height="30" as="geometry" />
        </mxCell>
        <mxCell id="yH5iYspir2nV7czzwESN-30" style="edgeStyle=orthogonalEdgeStyle;rounded=0;orthogonalLoop=1;jettySize=auto;html=1;" edge="1" parent="1" source="yH5iYspir2nV7czzwESN-24">
          <mxGeometry relative="1" as="geometry">
            <mxPoint x="-130" y="340" as="targetPoint" />
          </mxGeometry>
        </mxCell>
        <mxCell id="yH5iYspir2nV7czzwESN-24" value="Show customer list" style="rounded=1;whiteSpace=wrap;html=1;" vertex="1" parent="1">
          <mxGeometry x="-180.25" y="290" width="100" height="30" as="geometry" />
        </mxCell>
        <mxCell id="yH5iYspir2nV7czzwESN-38" style="edgeStyle=orthogonalEdgeStyle;rounded=0;orthogonalLoop=1;jettySize=auto;html=1;" edge="1" parent="1" source="yH5iYspir2nV7czzwESN-25" target="yH5iYspir2nV7czzwESN-27">
          <mxGeometry relative="1" as="geometry">
            <mxPoint x="-143.99999999999977" y="446" as="sourcePoint" />
            <Array as="points">
              <mxPoint x="-127" y="450" />
              <mxPoint x="-127" y="450" />
            </Array>
          </mxGeometry>
        </mxCell>
        <mxCell id="yH5iYspir2nV7czzwESN-39" style="edgeStyle=orthogonalEdgeStyle;rounded=0;orthogonalLoop=1;jettySize=auto;html=1;entryX=0.534;entryY=0.001;entryDx=0;entryDy=0;entryPerimeter=0;" edge="1" parent="1" target="yH5iYspir2nV7czzwESN-26">
          <mxGeometry relative="1" as="geometry">
            <mxPoint x="-170" y="450" as="sourcePoint" />
            <Array as="points">
              <mxPoint x="-170" y="460" />
              <mxPoint x="-243" y="460" />
            </Array>
          </mxGeometry>
        </mxCell>
        <mxCell id="yH5iYspir2nV7czzwESN-40" style="edgeStyle=orthogonalEdgeStyle;rounded=0;orthogonalLoop=1;jettySize=auto;html=1;entryX=0.5;entryY=0;entryDx=0;entryDy=0;" edge="1" parent="1" source="yH5iYspir2nV7czzwESN-25" target="yH5iYspir2nV7czzwESN-28">
          <mxGeometry relative="1" as="geometry">
            <Array as="points">
              <mxPoint x="-90" y="460" />
              <mxPoint x="-10" y="460" />
            </Array>
          </mxGeometry>
        </mxCell>
        <mxCell id="yH5iYspir2nV7czzwESN-65" style="edgeStyle=orthogonalEdgeStyle;rounded=0;orthogonalLoop=1;jettySize=auto;html=1;entryX=0.5;entryY=0;entryDx=0;entryDy=0;" edge="1" parent="1" target="yH5iYspir2nV7czzwESN-60">
          <mxGeometry relative="1" as="geometry">
            <mxPoint x="-206" y="448" as="sourcePoint" />
            <Array as="points">
              <mxPoint x="-206" y="448" />
              <mxPoint x="-206" y="450" />
              <mxPoint x="-355" y="450" />
            </Array>
          </mxGeometry>
        </mxCell>
        <mxCell id="yH5iYspir2nV7czzwESN-25" value="" style="html=1;points=[];perimeter=orthogonalPerimeter;fillColor=strokeColor;rotation=90;" vertex="1" parent="1">
          <mxGeometry x="-152" y="367.5" width="5" height="155" as="geometry" />
        </mxCell>
        <mxCell id="yH5iYspir2nV7czzwESN-53" style="edgeStyle=orthogonalEdgeStyle;rounded=0;orthogonalLoop=1;jettySize=auto;html=1;entryX=-0.133;entryY=0.775;entryDx=0;entryDy=0;entryPerimeter=0;" edge="1" parent="1" source="yH5iYspir2nV7czzwESN-26" target="yH5iYspir2nV7czzwESN-45">
          <mxGeometry relative="1" as="geometry">
            <Array as="points">
              <mxPoint x="-250" y="578" />
            </Array>
          </mxGeometry>
        </mxCell>
        <mxCell id="yH5iYspir2nV7czzwESN-26" value="Show customer profile" style="rounded=1;whiteSpace=wrap;html=1;" vertex="1" parent="1">
          <mxGeometry x="-304.75" y="478.5" width="115" height="40" as="geometry" />
        </mxCell>
        <mxCell id="yH5iYspir2nV7czzwESN-52" style="edgeStyle=orthogonalEdgeStyle;rounded=0;orthogonalLoop=1;jettySize=auto;html=1;entryX=-0.183;entryY=0.534;entryDx=0;entryDy=0;entryPerimeter=0;" edge="1" parent="1" source="yH5iYspir2nV7czzwESN-27" target="yH5iYspir2nV7czzwESN-45">
          <mxGeometry relative="1" as="geometry">
            <mxPoint x="-130" y="590" as="targetPoint" />
            <Array as="points">
              <mxPoint x="-127" y="580" />
            </Array>
          </mxGeometry>
        </mxCell>
        <mxCell id="yH5iYspir2nV7czzwESN-27" value="Show customer related top-up list" style="rounded=1;whiteSpace=wrap;html=1;" vertex="1" parent="1">
          <mxGeometry x="-184.75" y="478.5" width="115" height="40" as="geometry" />
        </mxCell>
        <mxCell id="yH5iYspir2nV7czzwESN-37" style="edgeStyle=orthogonalEdgeStyle;rounded=0;orthogonalLoop=1;jettySize=auto;html=1;entryX=0.5;entryY=0;entryDx=0;entryDy=0;" edge="1" parent="1" source="yH5iYspir2nV7czzwESN-28" target="yH5iYspir2nV7czzwESN-31">
          <mxGeometry relative="1" as="geometry" />
        </mxCell>
        <mxCell id="yH5iYspir2nV7czzwESN-28" value="Show customer related card number" style="rounded=1;whiteSpace=wrap;html=1;" vertex="1" parent="1">
          <mxGeometry x="-64.75" y="478.5" width="115" height="40" as="geometry" />
        </mxCell>
        <mxCell id="yH5iYspir2nV7czzwESN-34" style="edgeStyle=orthogonalEdgeStyle;rounded=0;orthogonalLoop=1;jettySize=auto;html=1;entryX=0.467;entryY=0;entryDx=0;entryDy=0;entryPerimeter=0;" edge="1" parent="1" source="yH5iYspir2nV7czzwESN-29" target="yH5iYspir2nV7czzwESN-22">
          <mxGeometry relative="1" as="geometry">
            <Array as="points">
              <mxPoint x="-130" y="360" />
              <mxPoint x="-130" y="360" />
            </Array>
          </mxGeometry>
        </mxCell>
        <mxCell id="yH5iYspir2nV7czzwESN-35" style="edgeStyle=orthogonalEdgeStyle;rounded=0;orthogonalLoop=1;jettySize=auto;html=1;" edge="1" parent="1" source="yH5iYspir2nV7czzwESN-29" target="yH5iYspir2nV7czzwESN-21">
          <mxGeometry relative="1" as="geometry">
            <Array as="points">
              <mxPoint x="-177" y="360" />
              <mxPoint x="-256" y="360" />
            </Array>
          </mxGeometry>
        </mxCell>
        <mxCell id="yH5iYspir2nV7czzwESN-36" style="edgeStyle=orthogonalEdgeStyle;rounded=0;orthogonalLoop=1;jettySize=auto;html=1;entryX=0.445;entryY=-0.059;entryDx=0;entryDy=0;entryPerimeter=0;exitX=0.75;exitY=0.251;exitDx=0;exitDy=0;exitPerimeter=0;" edge="1" parent="1" source="yH5iYspir2nV7czzwESN-29" target="yH5iYspir2nV7czzwESN-23">
          <mxGeometry relative="1" as="geometry">
            <mxPoint x="-80" y="350" as="sourcePoint" />
            <Array as="points">
              <mxPoint x="-80" y="350" />
              <mxPoint x="-80" y="350" />
              <mxPoint x="-80" y="360" />
              <mxPoint y="360" />
            </Array>
          </mxGeometry>
        </mxCell>
        <mxCell id="yH5iYspir2nV7czzwESN-29" value="" style="html=1;points=[];perimeter=orthogonalPerimeter;fillColor=strokeColor;rotation=90;" vertex="1" parent="1">
          <mxGeometry x="-132.5" y="290" width="5" height="112" as="geometry" />
        </mxCell>
        <mxCell id="yH5iYspir2nV7czzwESN-51" style="edgeStyle=orthogonalEdgeStyle;rounded=0;orthogonalLoop=1;jettySize=auto;html=1;entryX=-0.419;entryY=0.305;entryDx=0;entryDy=0;entryPerimeter=0;" edge="1" parent="1">
          <mxGeometry relative="1" as="geometry">
            <mxPoint x="-3.988764044943764" y="588.5" as="sourcePoint" />
            <mxPoint x="-4.550000000000182" y="635.405" as="targetPoint" />
            <Array as="points">
              <mxPoint x="-4" y="610" />
              <mxPoint x="-5" y="610" />
            </Array>
          </mxGeometry>
        </mxCell>
        <mxCell id="yH5iYspir2nV7czzwESN-31" value="Deactivate customer card" style="rounded=1;whiteSpace=wrap;html=1;" vertex="1" parent="1">
          <mxGeometry x="-64.75" y="548.5" width="115" height="40" as="geometry" />
        </mxCell>
        <mxCell id="yH5iYspir2nV7czzwESN-45" value="" style="html=1;points=[];perimeter=orthogonalPerimeter;fillColor=strokeColor;rotation=90;" vertex="1" parent="1">
          <mxGeometry x="-112.5" y="385" width="5" height="510" as="geometry" />
        </mxCell>
        <mxCell id="yH5iYspir2nV7czzwESN-76" style="edgeStyle=orthogonalEdgeStyle;rounded=0;orthogonalLoop=1;jettySize=auto;html=1;entryX=-0.252;entryY=0.497;entryDx=0;entryDy=0;entryPerimeter=0;" edge="1" parent="1" source="yH5iYspir2nV7czzwESN-55" target="yH5iYspir2nV7czzwESN-56">
          <mxGeometry relative="1" as="geometry" />
        </mxCell>
        <mxCell id="yH5iYspir2nV7czzwESN-55" value="Show top-ups tab" style="rounded=1;whiteSpace=wrap;html=1;" vertex="1" parent="1">
          <mxGeometry x="306.5" y="165" width="120" height="45" as="geometry" />
        </mxCell>
        <mxCell id="yH5iYspir2nV7czzwESN-71" style="edgeStyle=orthogonalEdgeStyle;rounded=0;orthogonalLoop=1;jettySize=auto;html=1;entryX=0.5;entryY=0;entryDx=0;entryDy=0;" edge="1" parent="1" source="yH5iYspir2nV7czzwESN-56" target="yH5iYspir2nV7czzwESN-57">
          <mxGeometry relative="1" as="geometry">
            <Array as="points">
              <mxPoint x="250" y="260" />
              <mxPoint x="250" y="260" />
            </Array>
          </mxGeometry>
        </mxCell>
        <mxCell id="yH5iYspir2nV7czzwESN-72" style="edgeStyle=orthogonalEdgeStyle;rounded=0;orthogonalLoop=1;jettySize=auto;html=1;entryX=0.435;entryY=0;entryDx=0;entryDy=0;entryPerimeter=0;" edge="1" parent="1" source="yH5iYspir2nV7czzwESN-56" target="yH5iYspir2nV7czzwESN-58">
          <mxGeometry relative="1" as="geometry">
            <Array as="points">
              <mxPoint x="370" y="273" />
              <mxPoint x="366" y="273" />
            </Array>
          </mxGeometry>
        </mxCell>
        <mxCell id="yH5iYspir2nV7czzwESN-73" style="edgeStyle=orthogonalEdgeStyle;rounded=0;orthogonalLoop=1;jettySize=auto;html=1;entryX=0.5;entryY=0;entryDx=0;entryDy=0;" edge="1" parent="1" source="yH5iYspir2nV7czzwESN-56" target="yH5iYspir2nV7czzwESN-59">
          <mxGeometry relative="1" as="geometry">
            <Array as="points">
              <mxPoint x="500" y="260" />
              <mxPoint x="500" y="260" />
            </Array>
          </mxGeometry>
        </mxCell>
        <mxCell id="yH5iYspir2nV7czzwESN-56" value="" style="html=1;points=[];perimeter=orthogonalPerimeter;fillColor=strokeColor;rotation=90;rounded=0;" vertex="1" parent="1">
          <mxGeometry x="362.5" y="105" width="5" height="290" as="geometry" />
        </mxCell>
        <mxCell id="yH5iYspir2nV7czzwESN-68" style="edgeStyle=orthogonalEdgeStyle;rounded=0;orthogonalLoop=1;jettySize=auto;html=1;entryX=-0.027;entryY=0.558;entryDx=0;entryDy=0;entryPerimeter=0;" edge="1" parent="1" source="yH5iYspir2nV7czzwESN-57" target="yH5iYspir2nV7czzwESN-66">
          <mxGeometry relative="1" as="geometry" />
        </mxCell>
        <mxCell id="yH5iYspir2nV7czzwESN-57" value="Show top-up list" style="rounded=1;whiteSpace=wrap;html=1;" vertex="1" parent="1">
          <mxGeometry x="200" y="290" width="100" height="30" as="geometry" />
        </mxCell>
        <mxCell id="yH5iYspir2nV7czzwESN-58" value="search top-up" style="rounded=1;whiteSpace=wrap;html=1;" vertex="1" parent="1">
          <mxGeometry x="326.5" y="290" width="100" height="30" as="geometry" />
        </mxCell>
        <mxCell id="yH5iYspir2nV7czzwESN-59" value="Add new top-up" style="rounded=1;whiteSpace=wrap;html=1;" vertex="1" parent="1">
          <mxGeometry x="450" y="290" width="100" height="30" as="geometry" />
        </mxCell>
        <mxCell id="yH5iYspir2nV7czzwESN-62" style="edgeStyle=orthogonalEdgeStyle;rounded=0;orthogonalLoop=1;jettySize=auto;html=1;entryX=-0.057;entryY=0.607;entryDx=0;entryDy=0;entryPerimeter=0;" edge="1" parent="1" source="yH5iYspir2nV7czzwESN-60" target="yH5iYspir2nV7czzwESN-61">
          <mxGeometry relative="1" as="geometry" />
        </mxCell>
        <mxCell id="yH5iYspir2nV7czzwESN-60" value="Delete customer" style="rounded=1;whiteSpace=wrap;html=1;" vertex="1" parent="1">
          <mxGeometry x="-400" y="478.5" width="90" height="40" as="geometry" />
        </mxCell>
        <mxCell id="yH5iYspir2nV7czzwESN-61" value="" style="html=1;points=[];perimeter=orthogonalPerimeter;fillColor=strokeColor;rotation=90;" vertex="1" parent="1">
          <mxGeometry x="-332.5" y="526.25" width="5" height="227.5" as="geometry" />
        </mxCell>
        <mxCell id="yH5iYspir2nV7czzwESN-63" value="Show top-up information" style="rounded=1;whiteSpace=wrap;html=1;" vertex="1" parent="1">
          <mxGeometry x="150" y="380" width="100" height="30" as="geometry" />
        </mxCell>
        <mxCell id="yH5iYspir2nV7czzwESN-64" value="Delete top-up" style="rounded=1;whiteSpace=wrap;html=1;" vertex="1" parent="1">
          <mxGeometry x="260" y="380" width="100" height="30" as="geometry" />
        </mxCell>
        <mxCell id="yH5iYspir2nV7czzwESN-69" style="edgeStyle=orthogonalEdgeStyle;rounded=0;orthogonalLoop=1;jettySize=auto;html=1;entryX=0.5;entryY=0;entryDx=0;entryDy=0;" edge="1" parent="1" source="yH5iYspir2nV7czzwESN-66" target="yH5iYspir2nV7czzwESN-63">
          <mxGeometry relative="1" as="geometry">
            <Array as="points">
              <mxPoint x="200" y="360" />
              <mxPoint x="200" y="360" />
            </Array>
          </mxGeometry>
        </mxCell>
        <mxCell id="yH5iYspir2nV7czzwESN-70" style="edgeStyle=orthogonalEdgeStyle;rounded=0;orthogonalLoop=1;jettySize=auto;html=1;entryX=0.5;entryY=0;entryDx=0;entryDy=0;" edge="1" parent="1" source="yH5iYspir2nV7czzwESN-66" target="yH5iYspir2nV7czzwESN-64">
          <mxGeometry relative="1" as="geometry">
            <Array as="points">
              <mxPoint x="310" y="360" />
              <mxPoint x="310" y="360" />
            </Array>
          </mxGeometry>
        </mxCell>
        <mxCell id="yH5iYspir2nV7czzwESN-66" value="" style="html=1;points=[];perimeter=orthogonalPerimeter;fillColor=strokeColor;rotation=90;rounded=0;" vertex="1" parent="1">
          <mxGeometry x="255" y="285" width="5" height="130" as="geometry" />
        </mxCell>
        <mxCell id="yH5iYspir2nV7czzwESN-92" style="edgeStyle=orthogonalEdgeStyle;rounded=0;orthogonalLoop=1;jettySize=auto;html=1;entryX=0.223;entryY=0.501;entryDx=0;entryDy=0;entryPerimeter=0;" edge="1" parent="1" source="yH5iYspir2nV7czzwESN-77" target="yH5iYspir2nV7czzwESN-85">
          <mxGeometry relative="1" as="geometry" />
        </mxCell>
        <mxCell id="yH5iYspir2nV7czzwESN-77" value="Show bundles tab" style="rounded=1;whiteSpace=wrap;html=1;" vertex="1" parent="1">
          <mxGeometry x="760" y="165" width="120" height="45" as="geometry" />
        </mxCell>
        <mxCell id="yH5iYspir2nV7czzwESN-78" value="Show bundle list" style="rounded=1;whiteSpace=wrap;html=1;" vertex="1" parent="1">
          <mxGeometry x="650" y="290" width="100" height="30" as="geometry" />
        </mxCell>
        <mxCell id="yH5iYspir2nV7czzwESN-79" value="search bundle" style="rounded=1;whiteSpace=wrap;html=1;" vertex="1" parent="1">
          <mxGeometry x="770" y="290" width="100" height="30" as="geometry" />
        </mxCell>
        <mxCell id="yH5iYspir2nV7czzwESN-80" value="Add new bundle" style="rounded=1;whiteSpace=wrap;html=1;" vertex="1" parent="1">
          <mxGeometry x="880" y="290" width="100" height="30" as="geometry" />
        </mxCell>
        <mxCell id="yH5iYspir2nV7czzwESN-81" value="View bundle" style="rounded=1;whiteSpace=wrap;html=1;" vertex="1" parent="1">
          <mxGeometry x="540" y="380" width="100" height="30" as="geometry" />
        </mxCell>
        <mxCell id="yH5iYspir2nV7czzwESN-82" value="Edit bundle" style="rounded=1;whiteSpace=wrap;html=1;" vertex="1" parent="1">
          <mxGeometry x="650" y="380" width="100" height="30" as="geometry" />
        </mxCell>
        <mxCell id="yH5iYspir2nV7czzwESN-83" value="Delete bundle" style="rounded=1;whiteSpace=wrap;html=1;" vertex="1" parent="1">
          <mxGeometry x="760" y="380" width="100" height="30" as="geometry" />
        </mxCell>
        <mxCell id="yH5iYspir2nV7czzwESN-84" value="Show bundle information" style="rounded=1;whiteSpace=wrap;html=1;" vertex="1" parent="1">
          <mxGeometry x="540" y="478.5" width="100" height="30" as="geometry" />
        </mxCell>
        <mxCell id="yH5iYspir2nV7czzwESN-86" style="edgeStyle=orthogonalEdgeStyle;rounded=0;orthogonalLoop=1;jettySize=auto;html=1;entryX=0.5;entryY=0;entryDx=0;entryDy=0;" edge="1" parent="1" source="yH5iYspir2nV7czzwESN-85" target="yH5iYspir2nV7czzwESN-78">
          <mxGeometry relative="1" as="geometry">
            <Array as="points">
              <mxPoint x="700" y="260" />
              <mxPoint x="700" y="260" />
            </Array>
          </mxGeometry>
        </mxCell>
        <mxCell id="yH5iYspir2nV7czzwESN-87" style="edgeStyle=orthogonalEdgeStyle;rounded=0;orthogonalLoop=1;jettySize=auto;html=1;entryX=0.5;entryY=0;entryDx=0;entryDy=0;" edge="1" parent="1" source="yH5iYspir2nV7czzwESN-85" target="yH5iYspir2nV7czzwESN-79">
          <mxGeometry relative="1" as="geometry" />
        </mxCell>
        <mxCell id="yH5iYspir2nV7czzwESN-88" style="edgeStyle=orthogonalEdgeStyle;rounded=0;orthogonalLoop=1;jettySize=auto;html=1;" edge="1" parent="1" source="yH5iYspir2nV7czzwESN-85" target="yH5iYspir2nV7czzwESN-80">
          <mxGeometry relative="1" as="geometry">
            <Array as="points">
              <mxPoint x="930" y="270" />
              <mxPoint x="930" y="270" />
            </Array>
          </mxGeometry>
        </mxCell>
        <mxCell id="yH5iYspir2nV7czzwESN-85" value="" style="html=1;points=[];perimeter=orthogonalPerimeter;fillColor=strokeColor;rotation=90;rounded=0;" vertex="1" parent="1">
          <mxGeometry x="817.5" y="105" width="5" height="290" as="geometry" />
        </mxCell>
        <mxCell id="yH5iYspir2nV7czzwESN-91" value="Canteen tab" style="rounded=1;whiteSpace=wrap;html=1;" vertex="1" parent="1">
          <mxGeometry x="1130" y="165" width="120" height="45" as="geometry" />
        </mxCell>
        <mxCell id="yH5iYspir2nV7czzwESN-93" value="show product tab" style="rounded=1;whiteSpace=wrap;html=1;" vertex="1" parent="1">
          <mxGeometry x="1000" y="290" width="100" height="30" as="geometry" />
        </mxCell>
        <mxCell id="yH5iYspir2nV7czzwESN-94" value="show category tab" style="rounded=1;whiteSpace=wrap;html=1;" vertex="1" parent="1">
          <mxGeometry x="1111" y="290" width="100" height="30" as="geometry" />
        </mxCell>
      </root>
    </mxGraphModel>
  </diagram>
  <diagram id="Zz_nghpq2s-09sXusEZ2" name="Page-6">
    <mxGraphModel dx="868" dy="450" grid="1" gridSize="10" guides="1" tooltips="1" connect="1" arrows="1" fold="1" page="1" pageScale="1" pageWidth="850" pageHeight="1100" math="0" shadow="0">
      <root>
        <mxCell id="0" />
        <mxCell id="1" parent="0" />
      </root>
    </mxGraphModel>
  </diagram>
</mxfile>
